<svg width="117" height="125" viewBox="0 0 117 125" fill="none" xmlns="http://www.w3.org/2000/svg">
<path d="M89.0634 35.5776L58.6682 5.01429L27.9368 35.5776M58.6682 5.17475V96.7042M35.5776 58.5001H20.2959C16.243 58.5001 12.3561 60.1101 9.49019 62.976C6.62432 65.8418 5.01429 69.7288 5.01429 73.7817V104.345C5.01429 108.398 6.62432 112.285 9.49019 115.151C12.3561 118.017 16.243 119.627 20.2959 119.627H96.7042C100.757 119.627 104.644 118.017 107.51 115.151C110.376 112.285 111.986 108.398 111.986 104.345V73.7817C111.986 69.7288 110.376 65.8418 107.51 62.976C104.644 60.1101 100.757 58.5001 96.7042 58.5001H81.4226" stroke="#878787" stroke-width="10" stroke-linecap="round" stroke-linejoin="round"/>
</svg>
